<svg xmlns="http://www.w3.org/2000/svg" xmlns:xlink="http://www.w3.org/1999/xlink" width="500" zoomAndPan="magnify" viewBox="0 0 375 374.999991" height="500" preserveAspectRatio="xMidYMid meet" version="1.0"><defs><g/><clipPath id="b5deb17ea4"><path d="M 147.707031 143.316406 L 231.707031 143.316406 L 231.707031 227.316406 L 147.707031 227.316406 Z M 147.707031 143.316406 " clip-rule="nonzero"/></clipPath><clipPath id="2e693d0e36"><path d="M 164 159 L 215 159 L 215 227.316406 L 164 227.316406 Z M 164 159 " clip-rule="nonzero"/></clipPath><clipPath id="7cbd9a2456"><path d="M 112.707031 122 L 154 122 L 154 247 L 112.707031 247 Z M 112.707031 122 " clip-rule="nonzero"/></clipPath><clipPath id="490ded3e33"><path d="M 188 195 L 260.457031 195 L 260.457031 246 L 188 246 Z M 188 195 " clip-rule="nonzero"/></clipPath></defs><g clip-path="url(#b5deb17ea4)"><path fill="#38b6ff" d="M 159.011719 213.980469 L 159.011719 192.398438 C 158.488281 190.121094 158.207031 187.75 158.207031 185.316406 C 158.207031 167.917969 172.308594 153.816406 189.707031 153.816406 C 207.105469 153.816406 221.207031 167.917969 221.207031 185.316406 C 221.207031 202.714844 207.105469 216.816406 189.707031 216.816406 C 189.089844 216.816406 188.476562 216.796875 187.867188 216.761719 L 187.867188 227.273438 C 188.476562 227.300781 189.089844 227.316406 189.707031 227.316406 C 212.902344 227.316406 231.707031 208.511719 231.707031 185.316406 C 231.707031 162.121094 212.902344 143.316406 189.707031 143.316406 C 166.511719 143.316406 147.707031 162.121094 147.707031 185.316406 C 147.707031 196.398438 152 206.476562 159.011719 213.980469 " fill-opacity="1" fill-rule="nonzero"/></g><g clip-path="url(#2e693d0e36)"><path fill="#004aad" d="M 189.707031 159.441406 C 175.78125 159.441406 164.488281 170.734375 164.488281 184.660156 L 164.488281 217.605469 L 176.015625 227.316406 L 176.015625 184.660156 C 176.015625 177.101562 182.148438 170.96875 189.707031 170.96875 C 197.269531 170.96875 203.398438 177.101562 203.398438 184.660156 C 203.398438 192.222656 197.269531 198.351562 189.707031 198.351562 C 189.082031 198.351562 188.46875 198.308594 187.867188 198.226562 L 187.867188 209.816406 C 188.476562 209.859375 189.089844 209.882812 189.707031 209.882812 C 203.636719 209.882812 214.929688 198.589844 214.929688 184.660156 C 214.929688 170.734375 203.636719 159.441406 189.707031 159.441406 " fill-opacity="1" fill-rule="nonzero"/></g><path fill="#0a4c86" d="M 230.226562 250.769531 C 230.132812 251.027344 229.902344 251.101562 229.722656 251.226562 C 226.445312 253.433594 223.003906 255.351562 219.421875 257.019531 C 214.894531 259.125 210.199219 260.742188 205.347656 261.914062 C 202.171875 262.683594 198.953125 263.226562 195.707031 263.570312 C 194.25 263.726562 192.789062 263.855469 191.324219 263.886719 C 189.996094 263.917969 188.671875 264.03125 187.339844 263.992188 C 184.390625 263.902344 181.445312 263.753906 178.515625 263.378906 C 174.507812 262.867188 170.570312 262.054688 166.699219 260.910156 C 163.804688 260.058594 160.960938 259.050781 158.199219 257.828125 C 157.476562 257.511719 156.761719 257.183594 156.035156 256.875 C 155.605469 256.695312 155.273438 256.421875 154.992188 256.046875 C 152.84375 253.175781 150.878906 250.1875 149.152344 247.039062 C 147.246094 243.550781 145.605469 239.945312 144.265625 236.207031 C 142.953125 232.554688 141.933594 228.816406 141.226562 225 C 140.699219 222.164062 140.304688 219.3125 140.113281 216.433594 C 139.957031 214.117188 139.851562 211.796875 139.910156 209.476562 C 140.0625 203.648438 140.851562 197.902344 142.320312 192.257812 C 142.367188 192.066406 142.390625 191.859375 142.527344 191.695312 C 142.773438 191.675781 142.746094 191.890625 142.78125 192.015625 C 143.605469 194.804688 144.5625 197.546875 145.683594 200.230469 C 147.726562 205.128906 150.15625 209.824219 153.121094 214.238281 C 155.246094 217.402344 157.546875 220.429688 160.082031 223.277344 C 162.902344 226.445312 165.933594 229.402344 169.203125 232.105469 C 172.089844 234.496094 175.117188 236.6875 178.300781 238.65625 C 181.3125 240.515625 184.425781 242.191406 187.652344 243.65625 C 190.21875 244.824219 192.832031 245.867188 195.5 246.765625 C 199.453125 248.09375 203.488281 249.121094 207.597656 249.835938 C 210.886719 250.40625 214.191406 250.773438 217.523438 250.953125 C 220.183594 251.097656 222.84375 251.09375 225.5 251 C 226.9375 250.945312 228.378906 250.863281 229.808594 250.675781 C 229.933594 250.660156 230.078125 250.601562 230.226562 250.769531 Z M 230.226562 250.769531 " fill-opacity="1" fill-rule="nonzero"/><g clip-path="url(#7cbd9a2456)"><path fill="#062644" d="M 153.402344 123.042969 C 153.058594 123.570312 152.730469 124.078125 152.40625 124.582031 C 147.175781 132.75 143.511719 141.574219 141.394531 151.03125 C 139.945312 157.527344 139.304688 164.109375 139.464844 170.765625 C 139.511719 172.65625 139.59375 174.550781 139.816406 176.429688 C 139.855469 176.777344 139.800781 177.09375 139.65625 177.410156 C 137.699219 181.757812 136.128906 186.238281 134.960938 190.855469 C 134.113281 194.203125 133.480469 197.585938 133.054688 201.011719 C 132.421875 206.082031 132.265625 211.167969 132.59375 216.261719 C 132.996094 222.539062 134.09375 228.691406 135.914062 234.71875 C 137.121094 238.714844 138.621094 242.597656 140.40625 246.371094 C 140.445312 246.453125 140.492188 246.53125 140.527344 246.613281 C 140.582031 246.734375 140.664062 246.871094 140.503906 246.96875 C 140.378906 247.046875 140.296875 246.929688 140.21875 246.859375 C 139.296875 246.066406 138.359375 245.289062 137.457031 244.472656 C 133.71875 241.085938 130.363281 237.351562 127.394531 233.277344 C 125.589844 230.800781 123.953125 228.210938 122.449219 225.535156 C 120.148438 221.433594 118.269531 217.148438 116.789062 212.691406 C 114.871094 206.933594 113.691406 201.023438 113.214844 194.972656 C 112.839844 190.191406 112.929688 185.421875 113.484375 180.664062 C 114.484375 172.007812 116.921875 163.773438 120.804688 155.972656 C 124.667969 148.210938 129.734375 141.324219 135.992188 135.320312 C 139.351562 132.101562 142.976562 129.214844 146.886719 126.679688 C 148.855469 125.402344 150.882812 124.230469 152.9375 123.105469 C 153.046875 123.042969 153.152344 122.925781 153.402344 123.042969 Z M 153.402344 123.042969 " fill-opacity="1" fill-rule="nonzero"/></g><path fill="#1c2143" d="M 235.019531 131.367188 C 218.367188 127.332031 202.023438 128.140625 186.003906 134.074219 C 169.988281 140.003906 157.171875 150.132812 147.234375 164 C 147.011719 163.753906 147.109375 163.566406 147.121094 163.402344 C 147.59375 157.082031 148.824219 150.910156 150.867188 144.90625 C 153.945312 135.863281 158.574219 127.695312 164.777344 120.425781 C 165.566406 119.5 166.398438 118.609375 167.203125 117.699219 C 167.480469 117.382812 167.816406 117.195312 168.222656 117.085938 C 176.574219 114.835938 185.058594 114.027344 193.675781 114.695312 C 199.882812 115.179688 205.9375 116.414062 211.835938 118.40625 C 218.957031 120.808594 225.570312 124.199219 231.667969 128.585938 C 232.691406 129.320312 233.679688 130.105469 234.683594 130.871094 C 234.804688 130.964844 234.960938 131.03125 235.019531 131.367188 Z M 235.019531 131.367188 " fill-opacity="1" fill-rule="nonzero"/><g clip-path="url(#490ded3e33)"><path fill="#0d3749" d="M 260.152344 195.507812 C 260.355469 195.898438 260.296875 196.171875 260.261719 196.421875 C 260.011719 198.339844 259.726562 200.25 259.339844 202.144531 C 258.707031 205.257812 257.898438 208.320312 256.882812 211.328125 C 256.09375 213.675781 255.175781 215.972656 254.15625 218.230469 C 253.015625 220.757812 251.738281 223.214844 250.324219 225.59375 C 248.691406 228.347656 246.871094 230.96875 244.902344 233.496094 C 242.5625 236.507812 239.976562 239.292969 237.21875 241.925781 C 236.375 242.734375 235.476562 243.488281 234.609375 244.273438 C 234.203125 244.644531 233.675781 244.605469 233.199219 244.644531 C 231.746094 244.765625 230.289062 244.90625 228.828125 244.988281 C 227.046875 245.085938 225.269531 245.101562 223.492188 245.0625 C 221.246094 245.007812 219.007812 244.824219 216.765625 244.589844 C 213.332031 244.234375 209.964844 243.566406 206.621094 242.746094 C 204.660156 242.261719 202.71875 241.675781 200.804688 241 C 199.253906 240.453125 197.710938 239.898438 196.199219 239.246094 C 194.214844 238.390625 192.238281 237.511719 190.339844 236.472656 C 189.824219 236.191406 189.304688 235.925781 188.792969 235.648438 C 188.664062 235.582031 188.445312 235.542969 188.515625 235.339844 C 188.578125 235.152344 188.785156 235.226562 188.933594 235.226562 C 190.21875 235.214844 191.503906 235.257812 192.785156 235.1875 C 194.402344 235.101562 196.019531 235.019531 197.628906 234.84375 C 199.375 234.652344 201.109375 234.4375 202.84375 234.164062 C 205.554688 233.734375 208.234375 233.15625 210.886719 232.449219 C 214.457031 231.5 217.945312 230.316406 221.355469 228.890625 C 224.746094 227.476562 228.03125 225.847656 231.203125 223.988281 C 234.136719 222.265625 236.957031 220.375 239.664062 218.3125 C 241.851562 216.648438 243.933594 214.863281 245.949219 212.992188 C 247.039062 211.980469 248.109375 210.945312 249.132812 209.867188 C 251.363281 207.515625 253.472656 205.0625 255.421875 202.464844 C 256.691406 200.769531 257.886719 199.027344 259.054688 197.265625 C 259.414062 196.726562 259.742188 196.167969 260.152344 195.507812 Z M 260.152344 195.507812 " fill-opacity="1" fill-rule="nonzero"/></g><g fill="#343434" fill-opacity="1"><g transform="translate(125.367718, 236.892234)"><g><path d="M -8.117188 -10.441406 C -8.117188 -10.441406 -6.148438 -9.84375 -4.714844 -7.566406 C -3.328125 -5.367188 -2.339844 -1.625 -7.507812 1.628906 C -12.59375 4.835938 -15.785156 2.074219 -16.988281 0.167969 C -18.449219 -2.148438 -18.328125 -4.003906 -18.328125 -4.003906 L -18.761719 -3.734375 C -18.761719 -3.734375 -18.710938 -1.871094 -17.300781 0.367188 C -15.074219 3.902344 -11.160156 5.933594 -6.601562 3.0625 C -1.359375 -0.242188 -2.707031 -5.125 -4.269531 -7.597656 C -5.816406 -10.054688 -7.683594 -10.714844 -7.683594 -10.714844 Z M -8.117188 -10.441406 "/></g></g></g><g fill="#343434" fill-opacity="1"><g transform="translate(117.41066, 223.937968)"><g><path d="M -17.066406 -3.523438 L -10.769531 -6.03125 L -8.246094 0.308594 L -14.542969 2.816406 L -13.933594 4.347656 L -0.390625 -1.042969 L -1 -2.574219 L -7.902344 0.171875 L -10.425781 -6.167969 L -3.523438 -8.914062 L -4.140625 -10.46875 L -17.6875 -5.078125 Z M -17.066406 -3.523438 "/></g></g></g><g fill="#343434" fill-opacity="1"><g transform="translate(112.406457, 211.396575)"><g><path d="M -2.292969 -11.921875 L -2.632812 -13.675781 L -16 -4.578125 L -15.976562 -4.464844 L -0.132812 -0.800781 L -0.230469 -1.304688 L -6.472656 -2.761719 L -7.550781 -8.324219 Z M -6.890625 -2.847656 L -13.402344 -4.347656 L -7.90625 -8.089844 Z M -6.890625 -2.847656 "/></g></g></g><g fill="#343434" fill-opacity="1"><g transform="translate(109.530017, 195.938624)"><g><path d="M -14.484375 -13.03125 L -14.488281 -12.65625 L -2.136719 -12.59375 L -14.828125 -1.238281 L -14.828125 -1.191406 L 0.0273438 -1.113281 L 0.03125 -1.484375 L -12.179688 -1.550781 L 0.507812 -12.878906 L 0.507812 -12.949219 Z M -14.484375 -13.03125 "/></g></g></g><g fill="#343434" fill-opacity="1"><g transform="translate(109.634998, 180.816536)"><g><path d="M -12.777344 -9.96875 L -14.015625 -4.085938 L 0.25 -1.085938 L 1.265625 -5.902344 C 1.40625 -6.582031 3.347656 -14.121094 -4.351562 -15.738281 C -10.578125 -17.046875 -12.222656 -12.601562 -12.777344 -9.96875 Z M 0.890625 -5.933594 L 0.226562 -2.773438 L -13.289062 -5.617188 L -12.570312 -9.023438 C -12.027344 -11.613281 -10.273438 -15.230469 -4.707031 -14.058594 C 0.835938 -12.894531 1.546875 -9.042969 0.890625 -5.933594 Z M 0.890625 -5.933594 "/></g></g></g><g fill="#343434" fill-opacity="1"><g transform="translate(113.548897, 164.473512)"><g/></g></g><g fill="#343434" fill-opacity="1"><g transform="translate(116.025023, 157.66562)"><g><path d="M -10.28125 -11.691406 C -10.8125 -10.683594 -12.34375 -7.792969 -12.34375 -7.792969 L 0.542969 -0.972656 L 1.3125 -2.429688 L -4.679688 -5.601562 L -3.898438 -7.078125 C -3.570312 -7.695312 -1.183594 -12.15625 -4.875 -14.109375 C -7.707031 -15.609375 -9.726562 -12.738281 -10.28125 -11.691406 Z M -4.410156 -6.902344 L -5.007812 -5.773438 L -11.242188 -9.074219 L -10.363281 -10.738281 C -9.257812 -12.828125 -7.734375 -13.625 -5.476562 -12.429688 C -3.179688 -11.214844 -3.140625 -9.304688 -4.410156 -6.902344 Z M -4.410156 -6.902344 "/></g></g></g><g fill="#343434" fill-opacity="1"><g transform="translate(121.984986, 146.742441)"><g><path d="M -6.375 -15.253906 L -6.675781 -15.472656 L -11.011719 -9.589844 L -11.054688 -9.53125 L 0.679688 -0.882812 L 5.058594 -6.824219 L 4.761719 -7.046875 L 1.359375 -2.429688 L -4.320312 -6.617188 L -1.292969 -10.726562 L -1.589844 -10.949219 L -4.621094 -6.835938 L -9.777344 -10.640625 Z M -6.375 -15.253906 "/></g></g></g></svg>